<svg width="307" height="287" viewBox="0 0 307 287" fill="none" xmlns="http://www.w3.org/2000/svg">
<mask id="mask0_33_97" style="mask-type:alpha" maskUnits="userSpaceOnUse" x="0" y="0" width="307" height="287">
<rect width="307" height="287" rx="72" fill="#D9D9D9"/>
</mask>
<g mask="url(#mask0_33_97)">
<rect x="-2" y="-1" width="314" height="298" rx="60" fill="white"/>
<path d="M156.579 57.5125C156.887 57.3786 157.443 57.5481 158.82 57.6346C159.239 63.5597 159.914 69.5913 160.038 75.6287C160.246 85.7506 160.237 95.878 160.032 106C159.964 109.346 161.461 111.434 165.462 113.268C194.932 126.775 247.508 150.019 277.001 163.5C288.001 168.528 288.001 168.5 298.501 173.92C309 179.339 311.501 187.5 311.501 199.5C311.686 219.581 311.501 206.328 311.501 230.46C311.501 297.5 261.23 297.5 261.23 297.5H46.5015C46.5015 297.5 -1.49845 297.5 -1.4985 230.46C-1.24365 219.212 -1.4985 163.119 -1.4985 150.5C32.5005 157 32.5006 157 54.5005 161.5C64.881 163.623 72.0004 169.61 72.0005 182C72.2895 191.033 72.2052 203.568 85.4995 207.5C100.5 213 100.501 200.314 100.501 183.5C100.501 169.5 104 158 110.501 159.5C126.175 163.117 137.163 171.629 151.938 178.172C157.439 180.608 159.611 183.359 159.455 188.146C159.455 202.5 159.001 210.5 159.001 224C159.001 237 171.501 243.5 183.501 239.5C191.164 236.945 201.789 232.376 205.001 231C220.301 224.445 213.866 227.029 229.164 220.471C232.884 218.877 234.557 216 234.501 211.5C234.333 198.224 234.599 187.197 234.689 173.92C234.716 169.918 232.73 167.21 227.883 164.971C188.483 146.773 149.29 128.336 109.877 110.152C105.234 108.01 103.313 105.699 103.603 101.728C104.027 95.9359 103.751 90.1141 103.686 84.3055C103.663 82.2196 103.99 80.4122 106.796 79.1951C123.41 71.9915 139.976 64.7299 156.579 57.5125ZM247.001 -1.00018C247.071 -1.00017 310.001 -0.967165 310.001 58.4998C310.001 91.8311 310.004 99.66 310.001 102.5C309.983 122.718 309.936 134.282 310.001 154.5C310.001 154.5 234.501 125.748 236.001 126.5C236.001 126.5 227.501 123 227.501 116C227.478 104.299 227.501 104.5 227.501 93.4998C227.501 88 225.168 84.9997 217.501 77.9998C194.501 56.9998 196.501 58.4998 173.001 40.4998C166.921 35.8422 159.501 36.917 151.501 40.4998C135.536 47.6504 113.206 57.6436 97.0015 64.4998C92.7166 66.3127 87.1666 70.5001 87.1665 82.4998V105C87.1665 112 92.6523 118.981 97.0015 121C151.501 146.292 151.002 146.604 211.501 174.648C217.501 177.429 218.901 179 218.901 185.5C218.901 195.5 218.741 195.31 218.901 204C218.962 207.344 218.696 210.93 214.501 212.623C206.002 217 209.583 215.724 196.001 221.5C190.704 223.753 190.503 223.755 184.001 226.5C180.501 227.977 175.251 225 175.183 220.5C175.025 209.975 175.219 191.574 175.183 181.05C175.173 177.988 173.397 176.249 169.961 174.648C135.3 158.496 70.6985 128.11 36.0005 112C14.5004 102.017 -1.99857 97.4998 -1.9985 74.9998C-1.99849 71 -1.9985 74.9997 -1.9985 69.4998C-1.99844 -0.999829 46.0005 -1.00018 46.0005 -1.00018H247.001ZM138.07 209.547C136.056 218.648 136.617 219.546 145.653 221.693C148.837 213.946 147.786 212.027 138.07 209.547ZM115.754 198.648C116.067 202.373 113.541 206.196 118.502 209.947C120.216 210.522 121.646 212.036 123.885 210.884C125.876 202.189 124.871 200.624 115.754 198.648ZM137.824 186.089C137.747 191.189 134.664 196.197 143.785 199.203C148.981 198.015 147.13 194.761 147.1 192.375C147.052 188.478 142.156 187.874 137.824 186.089ZM118.646 176.762C117.811 176.753 116.419 176.515 116.222 176.768C112.658 181.382 116.169 187.25 123.96 189.159C124.674 184.601 127.061 179.961 118.646 176.762ZM123.615 82.0252C114.834 83.0833 112.869 86.5485 116.608 94.3211C126.323 92.8812 124.39 87.4832 123.615 82.0252Z" fill="#6F4E37"/>
<path d="M177.798 108.623C175.723 104.097 175.768 100.41 177.576 96.4626C189.468 98.2531 193.003 103.512 188.076 112.463C184.07 112.255 181.246 110.391 177.798 108.623Z" fill="#A06A46"/>
<path d="M178.291 86.2728C176.622 81.8327 177.426 77.6631 177.408 73.4626C190.313 74.6627 192.235 80.8972 188.606 90.4626C184.643 90.0601 181.811 88.0356 178.291 86.2728Z" fill="#A06A46"/>
<path d="M209.639 109.51C218.555 113.492 213.931 119.252 214.726 124.463C201.202 122.135 201.009 119.068 203.39 107.557C205.882 107.074 207.368 108.56 209.639 109.51Z" fill="#A06A46"/>
<path d="M215.086 100.147C210.394 101.433 203.035 98.5821 202.634 95.3753C202.224 92.0993 201.804 88.7318 203.127 85.4626C211.941 86.3889 215.171 88.8285 215.227 94.5077C215.244 96.2596 215.194 98.0118 215.086 100.147Z" fill="#A06A46"/>
</g>
</svg>
