<svg width="694" height="798" viewBox="0 0 694 798" fill="none" xmlns="http://www.w3.org/2000/svg">
<path d="M324 4.1673C340.458 -2.99756 360.233 -1.03919 375.227 10.9505L674.3 250.11C685.695 259.222 692.045 272.304 692.958 285.797C693.67 289.229 694.03 292.788 693.998 296.435L692.998 411.434C692.758 439.047 670.179 461.237 642.565 460.997C614.952 460.757 592.762 438.178 593.002 410.565L593.843 313.812L343.545 113.658L101.006 303.149V542.775C101.006 544.229 100.942 545.67 100.82 547.093C101.265 597.676 109.986 630.807 123.521 652.754C135.85 672.745 155.036 688.112 187.801 698H282C309.614 698 332 720.386 332 748C332 775.614 309.614 798 282 798H180C173.602 798 167.485 796.798 161.862 794.608C108.692 779.151 66.3288 750.524 38.4053 705.246C11.2591 661.229 1.1189 606.833 0.808594 545.907L0.800781 543L0.806641 542.354C0.823224 541.045 0.890532 539.748 1.00586 538.465V278.764C1.00596 262.68 8.60179 248.372 20.4004 239.226C20.4547 239.183 20.509 239.14 20.5635 239.097L312.775 10.7952C316.298 8.04337 320.074 5.83868 324 4.1673Z" fill="#6F4E37"/>
<path d="M335.666 246.2C346.114 245.54 355.447 245.536 365.686 246.072C368.165 246.205 370.616 246.521 373.02 247.013C442.767 251.414 521.136 308.479 537.644 381.646C538.84 385.834 539.886 389.984 540.818 394.193C543.684 407.14 541.289 420.696 534.161 431.877C527.033 443.059 515.755 450.952 502.808 453.818C489.86 456.684 476.304 454.29 465.122 447.162C453.94 440.033 446.049 428.754 443.183 415.807C442.676 413.519 442.116 411.305 441.49 409.115C430.552 370.915 402.486 349.883 358.816 346.46C357.24 346.34 355.718 346.246 354.127 346.172C351.577 346.055 349.109 346.001 346.5 346.001C345.5 346.001 344.503 345.969 343.51 345.91C343.048 345.935 342.584 345.961 342.117 345.991C338.341 346.238 334.915 346.598 331.262 347.137C282.172 353.27 249.827 394.005 253.853 438.912C257.289 483.31 296.351 515.293 352.037 519.63C358.422 520.216 364.636 520.495 371.5 520.5C373.872 520.5 376.227 520.669 378.549 521H643.004C670.618 521 693.004 543.386 693.004 571C693.004 572.525 692.935 574.034 692.802 575.524C692.914 576.787 692.98 578.064 692.996 579.353L693 580.001C693 629.931 678.828 678.701 646.744 718.381C614.481 758.283 567.26 785.087 508.305 796.35C506.924 796.614 505.547 796.816 504.174 796.962C500.889 797.641 497.486 798 494 798H437C409.386 797.999 387 775.614 387 748C387 720.386 409.386 698 437 698H490.188C529.263 690.408 553.892 674.171 568.983 655.507C576.919 645.692 583.067 634.151 587.155 621H377.996C375.581 621 373.207 620.827 370.884 620.497C361.3 620.474 352.333 620.077 342.831 619.206C261.199 616.811 159.288 547.685 154.226 447.548C142.485 351.107 225.428 256.676 316.563 248.223C323.156 247.249 329.184 246.624 335.666 246.2Z" fill="#A06A46"/>
</svg>
